<svg
                                        xmlns="http://www.w3.org/2000/svg"
                                        width="16"
                                        height="16"
                                        fill="none"
                                        viewBox="0 0 16 16"
                                    >
                                        <path
                                            d="M12.666 13.333c.368 0 .667-.298.667-.667S13.034 12 12.666 12s-.667.298-.667.667.299.667.667.667zm0 1.333a2 2 0 1 0 0-4 2 2 0 1 0 0 4zM10.333 2.667a1.67 1.67 0 0 0-1.667 1.667v7.333a3 3 0 1 1-6 0v-5c0-.368.298-.667.667-.667S4 6.298 4 6.667v5a1.67 1.67 0 0 0 1.667 1.667c.921 0 1.667-.746 1.667-1.667V4.333a3 3 0 1 1 6 0v4.333a.67.67 0 0 1-.667.667c-.368 0-.667-.298-.667-.667V4.333a1.67 1.67 0 0 0-1.667-1.667z"
                                            fill-rule="evenodd"
                                            fill="#777e91"
                                        />
                                        <path
                                            d="M2.759 1.654a.67.67 0 0 1 1.152 0l1.173 2.01a.67.67 0 0 1-.576 1.003H2.162a.67.67 0 0 1-.576-1.003l1.173-2.01z"
                                            fill="#777e91"
                                        />
                                    </svg>